<?xml version="1.0" encoding="utf-8"?>
<!-- Generator: Adobe Illustrator 16.0.0, SVG Export Plug-In . SVG Version: 6.00 Build 0)  -->
<!DOCTYPE svg PUBLIC "-//W3C//DTD SVG 1.1//EN" "http://www.w3.org/Graphics/SVG/1.1/DTD/svg11.dtd">
<svg version="1.1" id="Layer_1" xmlns="http://www.w3.org/2000/svg" xmlns:xlink="http://www.w3.org/1999/xlink" x="0px" y="0px"
	 width="1792px" height="1792px" viewBox="0 0 1792 1792" enable-background="new 0 0 1792 1792" xml:space="preserve">
<path fill="#FFFFFF" d="M896,786h725c8,44.667,12,87.333,12,128c0,144.667-30.333,273.833-91,387.5S1394.833,1504,1282.5,1568
	s-241.167,96-386.5,96c-104.667,0-204.333-20.167-299-60.5s-176.333-94.833-245-163.5c-68.667-68.667-123.167-150.333-163.5-245
	S128,1000.667,128,896s20.167-204.333,60.5-299S283.333,420.667,352,352c68.667-68.667,150.333-123.167,245-163.5
	S791.333,128,896,128c200,0,371.667,67,515,201l-209,201c-82-79.333-184-119-306-119c-86,0-165.5,21.667-238.5,65
	S526.667,578.167,484,652.5S420,808,420,896s21.333,169.167,64,243.5s100.5,133.167,173.5,176.5s152.5,65,238.5,65
	c58,0,111.333-8,160-24s88.667-36,120-60s58.667-51.333,82-82s40.5-59.667,51.5-87s18.5-53.333,22.5-78H896V786z"/>
</svg>
